<?xml version="1.0" encoding="iso-8859-1"?>
<!-- Generator: Adobe Illustrator 19.0.0, SVG Export Plug-In . SVG Version: 6.00 Build 0)  -->
<svg version="1.1" id="Capa_1" xmlns="http://www.w3.org/2000/svg" xmlns:xlink="http://www.w3.org/1999/xlink" x="0px" y="0px"
	 viewBox="0 0 512 512" style="enable-background:new 0 0 512 512;" xml:space="preserve">
<path style="fill:#E36FA5;" d="M313.085,178.087c0.092,11.434,9.397,20.739,20.831,20.831c38.162,0.307,83.968-8.677,121.354-23.202
	c19.955-7.752,45.638-23.281,49.002-44.423l0,0c1.808-11.362-7.405-21.461-18.884-20.701l-15.222,1.007
	c-9.815,0.649-17.957-7.493-17.308-17.308l1.139-17.217c0.358-5.407-1.706-10.353-5.211-13.858
	c-3.505-3.505-8.451-5.569-13.858-5.211l-17.217,1.139c-9.815,0.649-17.957-7.493-17.308-17.308l1.007-15.222
	c0.759-11.48-9.339-20.693-20.702-18.885l0,0c-21.142,3.364-36.671,29.048-44.423,49.003
	C321.762,94.119,312.778,139.925,313.085,178.087z"/>
<g style="opacity:0.1;">
	<path d="M333.808,185.704c-0.407,0-0.82-0.033-1.235-0.101c-4.087-0.678-6.85-4.54-6.173-8.626
		c2.235-13.475,20.467-60.754,39.661-81.932c2.783-3.07,7.525-3.302,10.594-0.521c3.069,2.782,3.303,7.525,0.522,10.594
		c-16.939,18.689-34.279,64.072-35.978,74.312C340.589,183.101,337.411,185.704,333.808,185.704z"/>
	<path d="M333.791,185.704c-3.603,0-6.781-2.602-7.391-6.274c-0.677-4.086,2.086-7.948,6.173-8.626
		c10.24-1.698,55.623-19.039,74.313-35.978c3.067-2.78,7.811-2.549,10.594,0.521c2.781,3.068,2.548,7.812-0.522,10.594
		c-21.178,19.194-68.457,37.426-81.932,39.661C334.611,185.671,334.198,185.704,333.791,185.704z"/>
</g>
<path style="opacity:0.2;enable-background:new    ;" d="M320.194,111.796c-4.703,22.637-7.276,45.588-7.11,66.291
	c0.092,11.434,9.397,20.739,20.831,20.831c20.702,0.166,43.654-2.406,66.291-7.109c-7.639-17.213-18.494-33.333-32.587-47.425
	S337.408,119.435,320.194,111.796z"/>
<path style="fill:#E36FA5;" d="M178.085,313.087c11.434,0.092,20.739,9.397,20.831,20.831c0.307,38.162-8.677,83.968-23.202,121.354
	c-7.752,19.955-23.281,45.638-44.423,49.003l0,0c-11.362,1.808-21.461-7.405-20.701-18.885l1.007-15.222
	c0.649-9.815-7.492-17.957-17.308-17.308l-17.217,1.139c-5.407,0.358-10.353-1.706-13.858-5.211
	c-3.505-3.505-5.569-8.451-5.211-13.858l1.139-17.217c0.649-9.815-7.493-17.957-17.308-17.308l-15.222,1.007
	c-11.48,0.76-20.693-9.339-18.885-20.701l0,0c3.364-21.142,29.048-36.671,49.003-44.423
	C94.117,321.764,139.923,312.78,178.085,313.087z"/>
<g style="opacity:0.1;">
	<path d="M100.082,379.121c-2.044,0-4.079-0.83-5.559-2.464c-2.782-3.068-2.549-7.811,0.52-10.594
		c21.179-19.194,68.458-37.426,81.932-39.661c4.079-0.673,7.948,2.085,8.626,6.173c0.678,4.086-2.085,7.948-6.172,8.626
		c-10.24,1.698-55.622,19.039-74.312,35.978C103.68,378.479,101.878,379.121,100.082,379.121z"/>
	<path d="M140.379,419.423c-1.796,0-3.598-0.642-5.034-1.942c-3.069-2.782-3.302-7.525-0.52-10.595
		c16.938-18.689,34.28-64.071,35.978-74.311c0.678-4.087,4.542-6.846,8.626-6.173c4.086,0.678,6.85,4.54,6.172,8.626
		c-2.234,13.475-20.467,60.754-39.662,81.933C144.459,418.593,142.423,419.423,140.379,419.423z"/>
</g>
<path style="opacity:0.2;enable-background:new    ;" d="M111.794,320.196c22.637-4.703,45.588-7.276,66.29-7.109
	c11.434,0.092,20.739,9.397,20.831,20.831c0.166,20.702-2.406,43.654-7.109,66.291c-17.213-7.639-33.333-18.494-47.425-32.587
	S119.433,337.409,111.794,320.196z"/>
<circle style="fill:#E9CA59;" cx="256" cy="256.001" r="140.73"/>
<g>
	<path style="fill:#E36FA5;" d="M236.327,116.65c-20.961,22.443-35.79,52.305-28.952,86.5c6.695,33.474,40.873,50.739,48.625,52.853
		c-23.96-42.283,9.254-91.964,52.853-103.592c14.26-3.803,26.598-5.087,36.393-5.228C314.004,121.497,274.288,111.32,236.327,116.65
		z"/>
	<path style="fill:#E36FA5;" d="M116.648,275.676c22.443,20.961,52.305,35.79,86.5,28.951c33.474-6.695,50.739-40.873,52.853-48.625
		c-42.283,23.96-91.964-9.254-103.592-52.853c-3.803-14.26-5.087-26.598-5.228-36.393
		C121.496,197.999,111.318,237.715,116.648,275.676z"/>
	<path style="fill:#E36FA5;" d="M275.674,395.355c20.961-22.443,35.79-52.305,28.951-86.5
		c-6.695-33.474-40.873-50.739-48.625-52.853c23.96,42.283-9.254,91.964-52.853,103.592c-14.26,3.803-26.598,5.087-36.393,5.228
		C197.997,390.507,237.713,400.685,275.674,395.355z"/>
	<path style="fill:#E36FA5;" d="M395.353,236.329c-22.443-20.961-52.305-35.79-86.5-28.951
		c-33.474,6.695-50.739,40.873-52.853,48.625c42.283-23.96,91.964,9.254,103.592,52.853c3.803,14.26,5.087,26.598,5.228,36.393
		C390.505,314.006,400.683,274.29,395.353,236.329z"/>
</g>
<path style="opacity:0.1;enable-background:new    ;" d="M167.092,146.9c-3.655,2.986-7.195,6.182-10.604,9.59
	c-54.959,54.959-54.959,144.066,0,199.025c54.318,54.318,141.985,54.944,197.082,1.895
	C175.794,386.372,154.054,201.858,167.092,146.9z"/>
<path d="M505.354,111.342c-5.242-5.746-12.702-8.752-20.461-8.233l-15.222,1.007c-2.56,0.172-4.967-0.736-6.779-2.55
	c-1.814-1.813-2.719-4.221-2.55-6.779l1.139-17.217c0.484-7.311-2.209-14.477-7.391-19.657c-5.183-5.181-12.344-7.877-19.656-7.391
	l-17.218,1.139c-2.557,0.169-4.967-0.736-6.779-2.55c-1.813-1.813-2.719-4.221-2.55-6.779l1.008-15.223
	c0.514-7.761-2.488-15.219-8.234-20.461c-5.747-5.242-13.447-7.55-21.13-6.325c-11.45,1.822-22.184,8.885-31.902,20.992
	c-7.034,8.763-13.545,20.376-18.333,32.702c-7.715,19.861-13.893,41.963-18.037,64.445c-23.892-9.56-49.786-12.659-74.979-9.306
	c-0.643,0.004-1.282,0.091-1.906,0.259c-30.463,4.455-59.795,18.377-83.189,41.77c-3.491,3.49-6.765,7.116-9.834,10.855
	c-0.011,0.014-0.023,0.026-0.033,0.04c-26.725,32.584-37.442,73.983-32.162,113.643c0.004,0.643,0.092,1.283,0.259,1.907
	c1.676,11.455,4.692,22.75,9.046,33.629c-22.482,4.145-44.584,10.322-64.446,18.037c-3.861,1.5-5.775,5.846-4.275,9.707
	c1.153,2.969,3.989,4.786,6.993,4.786c0.903,0,1.821-0.164,2.714-0.511c20.111-7.813,42.658-13.978,65.525-17.943
	c6.746,12.767,15.481,24.75,26.213,35.482c3.467,3.467,7.068,6.721,10.781,9.772c0.03,0.025,0.06,0.051,0.091,0.076
	c7.751,6.36,16.002,11.815,24.61,16.364c-3.964,22.867-10.129,45.414-17.943,65.525c-7.641,19.667-21.796,41.636-38.61,44.312
	c-3.152,0.506-6.308-0.444-8.664-2.593c-2.356-2.15-3.587-5.207-3.376-8.39l1.008-15.222c0.452-6.835-2.066-13.533-6.91-18.377
	c-4.844-4.844-11.542-7.364-18.376-6.909l-17.219,1.139c-3.033,0.19-5.901-0.875-8.059-3.031c-2.155-2.155-3.231-5.017-3.03-8.059
	l1.139-17.218c0.453-6.835-2.066-13.532-6.91-18.376c-4.844-4.845-11.544-7.367-18.377-6.91l-15.222,1.007
	c-3.178,0.209-6.24-1.02-8.389-3.376c-2.149-2.356-3.095-5.514-2.594-8.663c1.069-6.72,5.275-13.434,12.501-19.956
	c3.075-2.775,3.318-7.517,0.542-10.593c-2.774-3.074-7.517-3.318-10.592-0.542C7.752,359.673,1.943,369.34,0.321,379.53
	c-1.222,7.683,1.083,15.384,6.326,21.13s12.699,8.744,20.461,8.233l15.222-1.007c2.552-0.177,4.966,0.735,6.78,2.55
	c1.814,1.814,2.719,4.221,2.55,6.779l-1.139,17.218c-0.484,7.31,2.21,14.476,7.391,19.656c5.182,5.181,12.341,7.867,19.656,7.391
	l17.218-1.139c2.56-0.174,4.966,0.736,6.78,2.55c1.813,1.813,2.718,4.221,2.549,6.779l-1.008,15.222
	c-0.513,7.762,2.488,15.22,8.234,20.461c4.736,4.321,10.8,6.646,17.087,6.646c1.341,0,2.692-0.105,4.043-0.32
	c11.45-1.822,22.184-8.885,31.903-20.992c7.033-8.762,13.544-20.376,18.333-32.702c7.716-19.861,13.893-41.963,18.037-64.445
	c17.688,7.078,36.472,10.623,55.258,10.623c6.574,0,13.147-0.444,19.674-1.311c0.654,0,1.305-0.094,1.939-0.263
	c30.468-4.454,59.806-18.376,83.203-41.773c3.489-3.489,6.762-7.113,9.83-10.85c0.013-0.016,0.027-0.032,0.04-0.049
	c26.723-32.584,37.439-73.982,32.159-113.642c-0.004-0.641-0.092-1.28-0.259-1.902c-1.676-11.456-4.693-22.752-9.047-33.632
	c22.481-4.144,44.583-10.32,64.446-18.036c12.326-4.788,23.94-11.299,32.701-18.333c12.107-9.719,19.17-20.452,20.992-31.902
	C512.902,124.789,510.596,117.088,505.354,111.342z M239.958,123.794c5.326-0.641,10.684-0.962,16.042-0.962
	c23.628,0,47.253,6.234,68.175,18.69c-5.71,0.896-11.47,2.098-17.254,3.641c-26.777,7.142-49.981,27.233-60.556,52.433
	c-5.902,14.065-7.35,28.617-4.405,42.429c-10.844-7.68-23.643-20.408-27.231-38.347C208.061,168.334,224.31,141.229,239.958,123.794
	z M161.791,161.793c15.991-15.991,35.07-27.051,55.334-33.197c-13.24,19.405-23.252,45.283-17.104,76.023
	c4.859,24.297,22.845,41.309,37.517,50.649c-13.416,3.07-25.484,0.168-34.14-3.464c-20.692-8.683-37.862-28.54-43.743-50.589
	c-2.885-10.821-4.517-21.512-4.89-31.834C156.991,166.785,159.332,164.252,161.791,161.793z M123.793,272.045
	c-3.466-28.815,2.447-58.551,17.728-84.218c0.896,5.709,2.098,11.469,3.641,17.254c7.142,26.777,27.232,49.981,52.432,60.556
	c14.067,5.902,28.617,7.35,42.429,4.405c-7.679,10.844-20.407,23.643-38.346,27.23C168.332,303.942,141.227,287.694,123.793,272.045
	z M169.381,357.238c-2.598-2.226-5.131-4.568-7.59-7.027c-15.992-15.992-27.053-35.073-33.199-55.339
	c15.38,10.495,34.822,18.965,57.536,18.965c5.943,0,12.114-0.58,18.49-1.855c24.296-4.86,41.307-22.845,50.648-37.517
	c3.07,13.416,0.169,25.484-3.463,34.14c-8.683,20.692-28.54,37.862-50.589,43.742C190.396,355.232,179.704,356.864,169.381,357.238z
	 M272.043,388.21c-28.815,3.465-58.55-2.447-84.217-17.728c5.71-0.896,11.47-2.098,17.254-3.641
	c26.777-7.142,49.981-27.233,60.555-52.433c5.902-14.065,7.35-28.617,4.405-42.428c10.844,7.679,23.643,20.407,27.23,38.346
	C303.94,343.67,287.692,370.775,272.043,388.21z M350.21,350.211c-15.99,15.991-35.069,27.051-55.332,33.197
	c13.24-19.405,23.251-45.282,17.103-76.023c-4.86-24.297-22.845-41.308-37.517-50.649c13.416-3.07,25.483-0.168,34.14,3.464
	c20.692,8.683,37.862,28.54,43.742,50.589c2.885,10.818,4.517,21.51,4.891,31.833C355.01,345.22,352.669,347.752,350.21,350.211z
	 M370.48,324.177c-0.896-5.71-2.098-11.47-3.641-17.254c-7.142-26.777-27.232-49.981-52.433-60.556
	c-14.068-5.902-28.616-7.349-42.429-4.405c7.68-10.844,20.408-23.643,38.347-27.23c8.93-1.787,17.949-2.016,26.81-0.682
	c4.095,0.621,7.917-2.203,8.533-6.299c0.617-4.097-2.203-7.917-6.299-8.533c-10.588-1.597-21.348-1.324-31.985,0.805
	c-24.297,4.86-41.308,22.845-50.649,37.516c-3.07-13.416-0.169-25.484,3.464-34.139c8.683-20.692,28.54-37.862,50.589-43.742
	c10.818-2.885,21.51-4.518,31.833-4.891c2.598,2.226,5.131,4.568,7.59,7.027c15.996,15.996,27.058,35.082,33.203,55.353
	c-2.005-1.365-4.025-2.661-6.058-3.882c-3.549-2.133-8.159-0.983-10.29,2.569c-2.133,3.551-0.982,8.158,2.569,10.29
	c6.35,3.813,12.586,8.466,18.576,13.841C391.673,268.777,385.761,298.511,370.48,324.177z M496.866,130.115
	c-2.676,16.814-24.643,30.97-44.31,38.61c-20.113,7.814-42.66,13.979-65.526,17.942c-6.746-12.767-15.481-24.75-26.212-35.481
	c-3.472-3.471-7.077-6.729-10.794-9.783c-0.024-0.02-0.047-0.04-0.071-0.06c-7.754-6.363-16.006-11.819-24.616-16.369
	c3.965-22.868,10.13-45.415,17.943-65.525c7.64-19.667,21.795-41.636,38.61-44.312c3.148-0.506,6.308,0.443,8.663,2.593
	c2.356,2.149,3.587,5.208,3.377,8.39l-1.01,15.221c-0.452,6.835,2.066,13.533,6.91,18.376c4.843,4.844,11.533,7.369,18.376,6.91
	l17.219-1.139c3.048-0.194,5.902,0.875,8.059,3.031c2.155,2.155,3.231,5.017,3.03,8.059l-1.139,17.218
	c-0.452,6.835,2.066,13.532,6.91,18.376c4.843,4.844,11.533,7.369,18.376,6.91l15.222-1.007c3.184-0.219,6.24,1.02,8.39,3.376
	C496.422,123.807,497.368,126.965,496.866,130.115z"/>
<g>
</g>
<g>
</g>
<g>
</g>
<g>
</g>
<g>
</g>
<g>
</g>
<g>
</g>
<g>
</g>
<g>
</g>
<g>
</g>
<g>
</g>
<g>
</g>
<g>
</g>
<g>
</g>
<g>
</g>
</svg>
